<svg id="Layer_1" height="512" viewBox="0 0 512 512" width="512" xmlns="http://www.w3.org/2000/svg" xmlns:xlink="http://www.w3.org/1999/xlink" data-name="Layer 1"><linearGradient id="linear-gradient" gradientUnits="userSpaceOnUse" x1="135.376" x2="135.376" y1="485.106" y2="105.814"><stop offset=".322" stop-color="white"/><stop offset=".466" stop-color="white"/><stop offset=".752" stop-color="white"/><stop offset=".898" stop-color="white"/></linearGradient><linearGradient id="linear-gradient-2" x1="157.553" x2="157.553" xlink:href="#linear-gradient" y1="485.105" y2="105.814"/><linearGradient id="linear-gradient-4" x1="157.553" x2="157.553" xlink:href="#linear-gradient" y1="485.106" y2="105.815"/><linearGradient id="linear-gradient-5" x1="157.553" x2="157.553" xlink:href="#linear-gradient" y1="485.106" y2="105.814"/><linearGradient id="linear-gradient-6" x1="354.68" x2="354.68" xlink:href="#linear-gradient" y1="485.105" y2="105.814"/><linearGradient id="linear-gradient-7" x1="354.68" x2="354.68" xlink:href="#linear-gradient" y1="485.106" y2="105.815"/><linearGradient id="linear-gradient-8" x1="354.68" x2="354.68" xlink:href="#linear-gradient" y1="485.106" y2="105.814"/><linearGradient id="linear-gradient-9" x1="353.812" x2="353.812" xlink:href="#linear-gradient" y1="485.106" y2="105.815"/><linearGradient id="linear-gradient-10" x1="256" x2="256" xlink:href="#linear-gradient" y1="485.106" y2="105.814"/><linearGradient id="linear-gradient-11" x1="238.78" x2="238.78" xlink:href="#linear-gradient" y1="485.106" y2="105.814"/><path d="m97.827 226.117h75.1a6 6 0 0 0 0-12h-75.1a6 6 0 1 0 0 12z" fill="url(#linear-gradient)"/><path d="m217.279 253.49h-119.452a6 6 0 0 0 0 12h119.452a6 6 0 0 0 0-12z" fill="url(#linear-gradient-2)"/><path d="m217.279 292.863h-119.452a6 6 0 0 0 0 12h119.452a6 6 0 1 0 0-12z" fill="url(#linear-gradient-2)"/><path d="m217.279 332.235h-119.452a6 6 0 0 0 0 12h119.452a6 6 0 0 0 0-12z" fill="url(#linear-gradient-4)"/><path d="m217.279 371.608h-119.452a6 6 0 0 0 0 12h119.452a6 6 0 0 0 0-12z" fill="url(#linear-gradient-5)"/><path d="m294.954 304.863h119.453a6 6 0 0 0 0-12h-119.453a6 6 0 0 0 0 12z" fill="url(#linear-gradient-6)"/><path d="m294.954 344.235h119.453a6 6 0 1 0 0-12h-119.453a6 6 0 0 0 0 12z" fill="url(#linear-gradient-7)"/><path d="m294.954 383.608h119.453a6 6 0 0 0 0-12h-119.453a6 6 0 0 0 0 12z" fill="url(#linear-gradient-8)"/><path d="m326.029 248.3h19.6l5.169 16.206a6 6 0 0 0 11.433-3.646l-4.011-12.56h23.362a10.728 10.728 0 0 0 8.528-17.244l-13.01-18.235a25.4 25.4 0 0 0 9.553-30.507l-4.337-10.937a6 6 0 1 0 -11.155 4.422l4.337 10.938a13.388 13.388 0 0 1 -5.385 16.3l-14.024-19.637c-.058-.08-.117-.159-.178-.236a10.738 10.738 0 0 0 -18.4 2.692l-21.4 47.61c-.054.121-.1.244-.151.368a10.73 10.73 0 0 0 10.069 14.466zm40.477-29.654 12.6 17.654h-24.661a13.4 13.4 0 0 1 6.719-14.78zm-18.76-26.28 11.732 16.434-4 2.152a25.41 25.41 0 0 0 -13.186 25.348h-14.292z" fill="url(#linear-gradient-9)"/><path d="m479.212 180.947v-7.769a19.855 19.855 0 0 0 -19.832-19.832h-5.241a37.093 37.093 0 0 0 -32.9-20.018h-123.297a47.52 47.52 0 0 0 -41.507 24.428 47.628 47.628 0 0 0 -41.569-24.428h-30.466a70.118 70.118 0 0 1 12.028-13.508 6.958 6.958 0 0 0 .982-9 6.87 6.87 0 0 0 -8.278-2.538c-12.686 5.1-36.906 10.393-56.589-11.459a6.359 6.359 0 0 0 -10.625 6.643c4.589 11.362 4.546 21.376 2.2 29.864h-33.354a37.09 37.09 0 0 0 -32.9 20.018h-5.6a19.855 19.855 0 0 0 -19.833 19.832v18.434a25.662 25.662 0 0 0 -22.431 25.409v235.547a25.661 25.661 0 0 0 25.646 25.619h141.646v2.476a7.7 7.7 0 0 0 13.014 5.58l11.147-10.608 11.147 10.606a7.7 7.7 0 0 0 13.014-5.578v-2.476h250.74a25.661 25.661 0 0 0 25.646-25.619v-246.17a25.663 25.663 0 0 0 -22.788-25.453zm-341.757-64.425c13.531 8.334 27.547 9.14 38.787 7.552-6.529 8.993-12.2 21.693-10.015 38.46a51.544 51.544 0 0 0 -28.834-8.731 59.507 59.507 0 0 0 -10.327.93c6.413-9.424 11.907-22.4 10.389-38.211zm39.837 349.667h-141.646a13.647 13.647 0 0 1 -13.646-13.619v-235.547a13.638 13.638 0 0 1 10.427-13.223v207.21a34.685 34.685 0 0 0 34.645 34.645h110.22zm0-32.534h-110.22a22.671 22.671 0 0 1 -22.645-22.645v-237.832a7.841 7.841 0 0 1 7.833-7.832h1.794a37.124 37.124 0 0 0 -.347 5v229.976a22.992 22.992 0 0 0 22.977 22.955h100.608zm36.321 36.989-6.85-6.518a7.7 7.7 0 0 0 -10.62 0l-6.851 6.518v-47.367l24.321.029zm36.844-4.455h-24.844v-20.534h19.741l4.992 5.612c.037.041.073.082.111.122zm-24.844-32.534v-7.224a28.781 28.781 0 0 1 8.431 6.509l.637.715zm24.844-.319-7.447-8.372a40.857 40.857 0 0 0 -30.5-13.687h-135.826a10.979 10.979 0 0 1 -10.977-10.955v-229.978a25.064 25.064 0 0 1 25.057-25.016h28.152a62.9 62.9 0 0 1 -11.759 14.072 6.868 6.868 0 0 0 -1.358 8.56 6.964 6.964 0 0 0 8.515 3.068c11.478-4.46 35.362-13.74 57.925 12.986a6.358 6.358 0 0 0 10.679-6.676c-5.736-12.965-6.081-23.5-3.866-32h35.814a35.6 35.6 0 0 1 35.591 35.536zm207.836-33.014v-229.978a37.124 37.124 0 0 0 -.347-5h1.434a7.84 7.84 0 0 1 7.832 7.832v237.834a22.67 22.67 0 0 1 -22.645 22.645h-166.937l.354-.409a28.8 28.8 0 0 1 21.808-9.969h135.524a22.992 22.992 0 0 0 22.977-22.955zm-195.836-219.458v-.106a35.5 35.5 0 0 1 35.485-35.43h123.294a25.064 25.064 0 0 1 25.057 25.016v229.978a10.979 10.979 0 0 1 -10.977 10.955h-135.524a40.8 40.8 0 0 0 -30.886 14.123l-6.449 7.46zm227.543 271.706a13.648 13.648 0 0 1 -13.646 13.619h-213.9v-14.981l.024-.028 4.776-5.525h177.31a34.685 34.685 0 0 0 34.645-34.645v-217.92a13.646 13.646 0 0 1 10.791 13.31z" fill="url(#linear-gradient-10)"/><path d="m204.62 62.685c12.17 4.062 23.451 10.565 23.589 30.471a6.21 6.21 0 0 0 5.4 6.164 6.429 6.429 0 0 0 .871.06 6.207 6.207 0 0 0 5.986-4.547c5.468-19.18 17.991-22.432 30.716-23.089a6.672 6.672 0 0 0 6.238-6.026 6.588 6.588 0 0 0 -4.558-6.939c-8.471-2.717-22.793-10.115-23.536-29.135a6.247 6.247 0 0 0 -12.194-1.661c-5.809 18.1-21.712 21.4-30.669 21.762a6.584 6.584 0 0 0 -6.252 5.47 6.67 6.67 0 0 0 4.409 7.47zm36.232-16.546a40.556 40.556 0 0 0 13.37 16.476 39.213 39.213 0 0 0 -5.057 2.189 36.769 36.769 0 0 0 -12.243 10.277 36.916 36.916 0 0 0 -13.415-16.666 40.743 40.743 0 0 0 17.345-12.276z" fill="url(#linear-gradient-11)"/></svg>